<svg t="1652176091827" class="icon" viewBox="0 0 1024 1024" version="1.1" xmlns="http://www.w3.org/2000/svg" p-id="702" width="200" height="200"><path d="M729.43616 104.18176 291.88096 104.18176c-93.53216 0-170.35264 76.82048-170.35264 173.69088l0 437.5552c0 93.51168 76.82048 166.99392 170.35264 166.99392l437.5552 0c93.51168 0 170.35264-76.82048 170.35264-170.35264L899.7888 277.87264C899.7888 181.00224 822.96832 104.18176 729.43616 104.18176zM849.67424 712.0896c0 66.80576-53.43232 120.23808-120.23808 120.23808L291.88096 832.32768c-66.80576 0-120.23808-53.43232-120.23808-120.23808L171.64288 277.87264c0-66.80576 53.43232-120.23808 120.23808-120.23808l437.5552 0c66.80576 0 120.23808 53.4528 120.23808 120.23808L849.67424 712.0896z" p-id="703" data-spm-anchor-id="a313x.7781069.0.i0" class="selected" fill="#ffffff"></path><path d="M534.77376 503.31648 534.77376 270.00832c0-13.6192-11.0592-24.2688-24.2688-24.2688-13.6192 0-24.2688 11.0592-24.2688 24.2688l0 243.0976c0 6.38976 2.56 12.34944 6.79936 17.03936 0.43008 0.86016 1.26976 1.26976 1.69984 2.12992l120.48384 120.48384c9.35936 9.35936 24.69888 9.35936 34.48832 0 9.35936-9.35936 9.35936-24.69888 0-34.48832L534.77376 503.31648 534.77376 503.31648" p-id="704" data-spm-anchor-id="a313x.7781069.0.i1" class="selected" fill="#ffffff"></path><path d="M510.6688 493.30176"></path></svg>
